<?xml version="1.0" encoding="UTF-8" standalone="no"?><!-- Generator: Gravit.io --><svg xmlns="http://www.w3.org/2000/svg" xmlns:xlink="http://www.w3.org/1999/xlink" style="isolation:isolate" viewBox="0 0 16 16" width="16pt" height="16pt"><defs><clipPath id="_clipPath_fIkpyhQ3ThWc38j3SK1finc67OLSADtN"><rect width="16" height="16"/></clipPath></defs><g clip-path="url(#_clipPath_fIkpyhQ3ThWc38j3SK1finc67OLSADtN)"><rect width="16" height="16" style="fill:rgb(0,0,0)" fill-opacity="0"/><g><ellipse vector-effect="non-scaling-stroke" cx="8.107350910835276" cy="8.247026338359351" rx="5.651763810152776" ry="5.6720335004226925" fill="rgb(255,153,0)"/><g><path d=" M 4.578 10.585 C 3.855 10.585 3.4 10.284 3.112 9.93 L 2.887 10.475 C 3.148 10.836 3.583 11.159 4.314 11.159 C 5.059 11.159 6.209 10.579 7.427 9.965 C 7.871 9.741 8.333 9.509 8.799 9.29 L 8.799 9.111 L 9.337 8.611 C 8.796 8.856 8.26 9.125 7.747 9.383 C 6.463 10.028 5.354 10.585 4.578 10.585 Z " fill="rgb(0,78,154)"/><path d=" M 3.788 12.539 C 4.523 12.539 5.674 11.955 6.892 11.336 C 7.538 11.008 8.219 10.663 8.903 10.368 L 8.799 10.226 L 8.799 10.062 C 8.271 10.304 7.748 10.569 7.247 10.822 C 5.954 11.477 4.837 12.042 4.051 12.042 C 3.291 12.042 2.822 11.714 2.532 11.335 L 2.343 11.793 C 2.591 12.177 3.026 12.539 3.788 12.539 Z " fill="rgb(0,78,154)"/><path d=" M 3.524 13.499 C 2.728 13.499 2.244 13.143 1.951 12.741 L 1.802 13.102 C 2.034 13.51 2.464 13.919 3.261 13.919 C 3.988 13.919 5.138 13.331 6.356 12.708 C 7.208 12.271 8.122 11.805 9.023 11.464 L 9.028 11.177 C 8.257 11.493 7.479 11.889 6.747 12.262 C 5.445 12.926 4.321 13.499 3.524 13.499 Z " fill="rgb(0,78,154)"/><path d=" M 3.788 12.771 C 3.01 12.771 2.533 12.429 2.241 12.039 L 2.072 12.448 C 2.312 12.845 2.745 13.229 3.524 13.229 C 4.256 13.229 5.406 12.643 6.624 12.022 C 7.395 11.628 8.217 11.21 9.034 10.883 L 9.04 10.561 C 8.347 10.857 7.653 11.209 6.997 11.543 C 5.699 12.202 4.579 12.771 3.788 12.771 Z " fill="rgb(0,78,154)"/><path d=" M 11.427 9.186 L 11.427 9.636 C 11.555 9.625 11.683 9.617 11.808 9.617 C 12.164 9.617 12.527 9.68 12.893 9.797 L 12.643 9.192 C 12.452 9.156 12.258 9.135 12.061 9.135 C 11.855 9.135 11.643 9.154 11.427 9.186 Z " fill="rgb(0,78,154)"/><path d=" M 11.427 10.226 L 11.387 10.297 C 11.443 10.295 11.5 10.291 11.556 10.291 C 12.117 10.291 12.697 10.442 13.279 10.731 L 13.01 10.081 C 12.627 9.936 12.224 9.848 11.808 9.848 C 11.683 9.848 11.556 9.857 11.427 9.869 L 11.427 10.226 Z " fill="rgb(0,78,154)"/><path d=" M 5.105 9.09 C 5.861 9.09 6.959 8.542 8.23 7.908 C 9.283 7.382 10.431 6.811 11.528 6.493 L 10.824 4.789 C 9.085 5.602 7.431 6.593 6.419 6.593 C 5.568 6.593 5.098 6.173 4.839 5.75 L 3.711 8.482 C 3.988 8.812 4.422 9.09 5.105 9.09 Z " fill="rgb(0,78,154)"/><path d=" M 4.051 11.849 C 4.791 11.849 5.941 11.267 7.159 10.65 C 7.688 10.383 8.241 10.103 8.799 9.85 L 8.799 9.461 C 8.357 9.669 7.919 9.89 7.497 10.102 C 6.208 10.753 5.095 11.314 4.314 11.314 C 3.573 11.314 3.111 10.999 2.822 10.633 L 2.614 11.135 C 2.869 11.508 3.305 11.849 4.051 11.849 Z " fill="rgb(0,78,154)"/><path d=" M 12.061 8.942 C 12.224 8.942 12.39 8.958 12.557 8.983 L 12.325 8.422 C 12.321 8.422 12.317 8.422 12.313 8.422 C 11.879 8.422 11.386 8.499 10.917 8.627 L 11.298 9.011 C 11.558 8.968 11.813 8.942 12.061 8.942 Z " fill="rgb(0,78,154)"/><path d=" M 12.262 8.27 L 12.046 7.746 C 11.647 7.794 11.213 7.894 10.793 8.029 L 10.793 8.498 C 11.283 8.359 11.806 8.276 12.262 8.27 Z " fill="rgb(0,78,154)"/><path d=" M 14.198 12.956 L 13.442 11.126 C 12.865 10.79 12.228 10.561 11.556 10.561 C 11.449 10.561 11.34 10.567 11.23 10.576 L 11.199 10.619 L 11.199 11.521 L 11.663 11.057 L 12.434 11.058 L 13.275 12.037 L 13.275 12.956 L 14.198 12.956 Z " fill="rgb(0,78,154)"/><path d=" M 11.787 7.119 C 11.355 7.213 10.912 7.354 10.465 7.526 L 10.744 7.929 C 11.171 7.79 11.592 7.687 12 7.634 L 11.787 7.119 Z " fill="rgb(0,78,154)"/><path d=" M 5.105 9.128 C 4.418 9.128 3.978 8.853 3.694 8.523 L 3.433 9.154 C 3.705 9.491 4.14 9.78 4.841 9.78 C 5.594 9.78 6.691 9.23 7.963 8.594 C 8.487 8.331 9.034 8.058 9.587 7.809 L 10.078 7.071 C 9.455 7.341 8.836 7.649 8.247 7.942 C 6.972 8.579 5.87 9.128 5.105 9.128 Z " fill="rgb(0,78,154)"/><path d=" M 4.841 9.857 C 4.136 9.857 3.689 9.569 3.403 9.226 L 3.16 9.815 C 3.427 10.164 3.862 10.47 4.578 10.47 C 5.326 10.47 6.477 9.891 7.695 9.279 C 8.255 8.997 8.842 8.703 9.434 8.44 L 9.434 8.039 L 9.506 7.931 C 8.993 8.165 8.485 8.418 7.997 8.663 C 6.717 9.303 5.612 9.857 4.841 9.857 Z " fill="rgb(0,78,154)"/><path d=" M 11.543 6.529 C 11.079 6.663 10.605 6.844 10.133 7.047 L 10.42 7.46 C 10.871 7.286 11.32 7.142 11.757 7.047 L 11.543 6.529 Z " fill="rgb(0,78,154)"/></g><path d=" M 13.017 13.139 L 13.017 12.076 L 12.263 11.235 L 11.725 11.235 L 10.967 12.067 L 10.958 12.067 L 10.958 10.402 L 11.181 10.142 L 11.181 9.179 L 10.542 8.572 L 10.542 8.015 L 10.083 7.415 L 9.645 8.015 L 9.645 8.572 L 9.006 9.179 L 9.006 10.142 L 9.229 10.402 L 9.229 11.676 C 8.303 12.014 7.352 12.499 6.466 12.952 C 5.16 13.62 4.032 14.197 3.231 14.197 C 2.416 14.197 1.925 13.827 1.631 13.413 L 0.562 16 L 15.438 16 L 14.256 13.139 L 13.017 13.139 Z " fill="rgb(205,16,19)"/><path d=" M 9.098 1.321 C 9.589 0.521 9.016 -0.411 7.978 0.194 C 7.3 -0.247 6.016 0.227 6.842 1.525 C 6.646 1.403 6.179 1.432 5.943 1.729 C 5.785 1.928 5.697 2.239 5.975 2.726 C 5.599 3.036 5.692 3.635 5.951 3.845 C 6.72 4.469 7.818 3.071 7.861 3.015 C 7.822 3.116 7.68 3.477 7.5 3.875 C 7.228 4.471 6.726 5.505 6.719 5.52 C 6.679 5.611 6.686 5.748 7.112 5.193 C 7.281 4.972 8.142 3.641 8.182 2.963 C 8.195 2.747 7.932 2.812 7.93 2.836 C 7.93 2.836 7.256 3.574 6.667 3.552 C 6.365 3.541 6.215 3.158 6.474 2.735 C 6.187 2.319 6.405 1.903 6.718 1.868 C 7.006 1.835 7.456 2.169 7.456 2.169 C 7.456 2.169 6.982 1.334 7.084 0.972 C 7.163 0.687 7.571 0.584 7.93 0.85 C 8.274 0.527 8.793 0.714 8.812 1.065 C 8.831 1.403 8.34 1.928 8.34 1.928 C 8.34 1.928 8.938 1.684 9.264 1.724 C 9.613 1.767 9.781 2.19 9.487 2.441 C 9.931 2.928 9.348 3.416 9.348 3.416 C 9.38 3.474 10.406 3.331 10.055 2.35 C 10.128 2.293 10.48 1.141 9.098 1.321 Z " fill="rgb(60,164,50)"/></g></g></svg>