<?xml version="1.0" standalone="no"?>
<!DOCTYPE svg PUBLIC "-//W3C//DTD SVG 20010904//EN"
 "http://www.w3.org/TR/2001/REC-SVG-20010904/DTD/svg10.dtd">
<svg version="1.0" xmlns="http://www.w3.org/2000/svg"
 width="2551.000000pt" height="2551.000000pt" viewBox="0 0 2551.000000 2551.000000"
 preserveAspectRatio="xMidYMid meet">
<metadata>
Created by potrace 1.11, written by Peter Selinger 2001-2013
</metadata>
<g transform="translate(0.000000,2551.000000) scale(0.100000,-0.100000)"
fill="#000000" stroke="none">
<path d="M12700 25118 c0 -82 0 -366 0 -633 0 -267 0 -516 0 -555 l0 -70 50 0
50 0 1 53 c3 373 3 1347 -1 1348 -3 1 -26 2 -52 3 l-48 2 0 -148z"/>
<path d="M12002 23488 l1 -193 61 -140 62 -141 -2 -274 c-1 -151 -3 -278 -3
-282 -1 -8 -42 -16 -131 -23 -36 -3 -76 -7 -90 -9 -14 -2 -47 -7 -75 -11 -27
-4 -59 -9 -70 -11 -432 -62 -926 -194 -1351 -359 -89 -35 -187 -75 -218 -89
-31 -14 -59 -26 -62 -26 -13 0 -400 -194 -508 -255 -1221 -687 -2163 -1720
-2728 -2990 -99 -222 -248 -632 -293 -805 -3 -8 -18 -67 -35 -130 -17 -63 -32
-124 -34 -135 -3 -11 -14 -59 -25 -107 -11 -47 -23 -101 -26 -120 -3 -18 -8
-40 -10 -48 -2 -8 -6 -32 -10 -54 -3 -21 -7 -41 -9 -45 -2 -3 -7 -31 -11 -61
-3 -30 -8 -62 -10 -70 -2 -8 -7 -35 -10 -60 -3 -25 -8 -63 -11 -85 -3 -22 -7
-51 -9 -65 -2 -14 -7 -56 -11 -95 -3 -38 -8 -81 -9 -95 -27 -237 -27 -1023 0
-1190 2 -14 7 -52 10 -85 10 -101 15 -138 21 -178 3 -20 7 -47 9 -60 26 -210
112 -617 170 -807 94 -311 180 -554 258 -735 76 -178 94 -217 174 -375 110
-220 267 -499 310 -551 19 -23 16 -39 -16 -113 l-30 -66 87 -79 c86 -79 172
-145 245 -190 30 -18 109 -106 171 -191 14 -18 -106 47 -214 117 -89 58 -195
142 -268 212 -24 22 -47 41 -51 41 -5 0 -20 -28 -34 -62 -14 -35 -33 -81 -43
-103 -10 -22 -18 -42 -19 -45 0 -3 -11 -27 -23 -54 -12 -27 -22 -50 -22 -52 0
-2 -11 -27 -24 -56 -13 -29 -42 -98 -65 -153 -23 -55 -49 -115 -57 -132 -19
-41 -13 -52 68 -128 245 -232 568 -411 868 -480 125 -29 190 -41 275 -51 22
-3 51 -7 65 -10 41 -8 411 -12 465 -5 49 6 52 5 115 -43 52 -40 108 -88 85
-72 -3 2 -25 0 -48 -5 -154 -28 -518 -31 -677 -5 -14 2 -46 7 -71 10 -80 11
-101 16 -229 47 -194 48 -406 135 -565 232 -32 20 -170 111 -175 117 -3 3 -27
23 -55 45 -27 21 -82 70 -121 107 l-71 69 -26 -58 c-14 -32 -76 -177 -137
-323 -62 -146 -114 -268 -116 -272 -7 -12 197 -208 284 -273 48 -36 92 -69 98
-73 30 -26 211 -123 294 -159 185 -79 355 -125 590 -159 124 -17 366 -22 505
-10 111 9 141 14 425 71 71 14 317 87 460 136 295 102 268 95 293 79 12 -7 47
-27 77 -43 30 -16 66 -36 79 -44 l24 -15 -29 -13 c-156 -65 -587 -212 -706
-241 -10 -2 -26 -6 -35 -8 -10 -2 -54 -13 -98 -25 -44 -11 -96 -23 -115 -26
-19 -3 -53 -10 -75 -15 -22 -5 -62 -12 -90 -15 -27 -4 -57 -8 -65 -10 -73 -19
-464 -26 -590 -12 -30 4 -75 9 -100 12 -38 4 -213 37 -272 51 -10 2 -27 6 -37
8 -11 3 -74 23 -141 45 -285 95 -555 262 -778 479 -41 40 -76 71 -78 69 -2 -1
-22 -47 -44 -101 -23 -54 -49 -117 -60 -140 -10 -22 -48 -112 -85 -198 l-68
-158 29 -37 c42 -56 183 -194 262 -256 72 -58 234 -167 248 -167 4 0 15 -6 23
-13 31 -25 217 -105 330 -141 102 -32 215 -60 296 -73 17 -2 41 -6 55 -9 108
-19 474 -26 600 -11 143 16 296 47 466 93 71 19 139 37 150 39 53 12 422 142
592 209 186 73 497 206 641 273 42 19 105 49 141 65 36 16 88 40 115 53 l50
25 148 -57 148 -57 -128 -62 c-160 -77 -433 -204 -438 -204 -2 0 -36 -15 -77
-34 -40 -18 -122 -55 -183 -80 -60 -26 -122 -54 -137 -62 -16 -8 -28 -13 -28
-10 0 3 -28 -8 -62 -23 -93 -42 -597 -228 -618 -228 -3 0 -44 -12 -91 -27
-206 -62 -474 -120 -664 -143 -81 -10 -440 -10 -540 0 -104 10 -133 14 -230
32 -71 13 -294 75 -339 94 -26 12 -53 21 -59 21 -14 0 -270 125 -306 149 -14
10 -55 37 -91 61 -100 67 -195 145 -303 249 -53 52 -99 92 -100 90 -2 -2 -55
-126 -119 -275 l-115 -272 57 -68 c169 -203 358 -355 580 -466 126 -64 140
-70 241 -106 57 -21 162 -50 209 -58 14 -3 41 -9 60 -14 19 -4 58 -12 85 -16
28 -4 57 -8 65 -9 166 -27 487 -25 660 4 220 37 360 72 615 153 231 73 659
237 881 338 23 11 81 37 130 58 298 132 482 220 1070 513 l481 240 104 -26
c57 -14 120 -29 139 -34 19 -6 53 -12 75 -16 114 -16 118 -12 -115 -130 -1402
-711 -2013 -988 -2627 -1191 -167 -55 -500 -144 -588 -157 -16 -3 -57 -10 -90
-15 -33 -6 -82 -13 -110 -16 -27 -3 -75 -8 -105 -12 -68 -7 -309 -7 -410 1
-91 6 -197 21 -305 41 -83 15 -285 71 -340 94 -11 4 -38 15 -60 23 -71 26
-217 99 -305 152 -157 94 -270 184 -416 332 l-101 102 -28 -67 c-16 -37 -36
-85 -46 -107 -71 -158 -138 -330 -131 -334 5 -3 20 -22 33 -42 57 -85 197
-230 339 -350 91 -77 297 -194 450 -256 118 -47 318 -101 435 -117 60 -8 125
-16 170 -21 52 -6 351 -6 390 -1 17 3 57 8 90 12 33 4 62 8 65 9 3 0 27 4 53
9 155 25 418 95 647 173 236 80 616 231 808 319 41 19 75 34 77 34 2 0 48 21
102 46 54 25 181 84 283 131 184 86 1045 517 1973 987 512 260 502 256 602
242 55 -8 330 -23 480 -26 l80 -1 -120 -57 c-120 -57 -605 -300 -2035 -1018
-415 -209 -795 -399 -845 -421 -49 -23 -134 -62 -187 -87 -141 -66 -419 -188
-523 -231 -49 -20 -103 -42 -120 -50 -86 -38 -515 -195 -575 -210 -8 -3 -53
-16 -100 -30 -47 -15 -93 -28 -102 -30 -10 -2 -59 -15 -110 -29 -94 -26 -330
-71 -416 -81 -136 -15 -177 -18 -292 -18 -121 -1 -348 10 -359 18 -3 2 -29 6
-58 9 -28 3 -71 10 -95 15 -24 5 -59 12 -78 15 -108 16 -325 90 -485 166 -226
106 -416 243 -606 438 -66 68 -122 122 -123 120 -1 -1 -20 -43 -40 -93 -21
-49 -44 -103 -51 -120 -8 -16 -32 -74 -55 -128 l-41 -97 69 -93 c321 -433 786
-689 1352 -744 143 -14 509 -7 538 10 4 3 34 8 67 12 32 3 62 8 65 10 3 2 21
6 40 9 109 18 424 108 600 170 25 9 70 25 100 36 116 40 474 186 685 280 209
93 263 118 520 240 137 64 944 468 1160 580 277 143 1553 783 1725 865 177 84
456 214 530 247 25 10 59 25 75 33 17 7 59 26 95 43 36 16 146 64 245 106 99
43 194 83 210 90 86 37 90 38 322 32 125 -2 279 -5 341 -5 l112 -1 0 -60 c0
-49 -3 -62 -17 -66 -67 -22 -503 -193 -653 -256 -145 -62 -144 -61 -325 -141
-193 -84 -464 -207 -605 -274 -52 -25 -151 -72 -220 -105 -69 -33 -126 -60
-127 -60 -5 0 -1071 -536 -1308 -658 -330 -170 -975 -499 -995 -507 -8 -3
-123 -59 -255 -123 -207 -101 -469 -224 -665 -313 -295 -133 -657 -275 -915
-361 -148 -48 -389 -119 -450 -130 -11 -3 -54 -11 -95 -20 -67 -13 -131 -25
-225 -40 -82 -14 -186 -20 -340 -20 -239 0 -396 16 -609 65 -456 104 -827 327
-1152 692 l-61 68 -13 -33 c-8 -18 -24 -55 -36 -83 -12 -27 -34 -79 -49 -115
-15 -36 -34 -81 -42 -100 -25 -57 -38 -87 -111 -260 -130 -308 -304 -715 -317
-745 -8 -16 -116 -271 -240 -565 -125 -294 -279 -655 -341 -802 -63 -147 -114
-271 -114 -276 0 -5 3641 -9 8855 -9 4870 0 8855 4 8855 8 0 7 -92 235 -155
384 -7 17 -18 44 -25 60 -6 17 -82 199 -167 405 -85 206 -198 479 -250 605
-52 127 -100 244 -108 260 -11 25 -146 354 -276 670 -16 39 -118 286 -227 550
l-199 480 -741 3 -742 2 -1 28 c0 15 0 301 -1 636 l0 609 -42 46 c-22 25 -57
63 -76 85 -19 21 -39 44 -45 50 -111 124 -181 202 -185 206 -3 3 -84 93 -180
200 -96 107 -179 200 -185 206 -83 91 -163 181 -172 194 -11 16 -41 18 -325
18 -172 0 -321 -2 -330 -4 -9 -3 -103 -100 -209 -217 -222 -243 -282 -308
-325 -354 -17 -18 -46 -49 -64 -70 -36 -41 -180 -199 -272 -297 l-56 -61 0
573 0 574 36 15 c21 8 52 21 70 29 57 27 141 53 145 46 1 -4 2 -125 2 -269 -1
-145 1 -263 4 -263 3 0 129 124 280 275 l274 274 459 -1 458 -2 28 -30 c15
-17 124 -143 242 -281 118 -137 226 -263 241 -280 15 -16 87 -100 159 -185
117 -137 191 -224 240 -280 8 -10 33 -38 55 -64 l40 -47 5 -552 5 -552 548 0
c314 -1 547 3 547 8 0 5 -6 23 -14 40 -8 18 -36 84 -61 147 -26 63 -54 131
-62 150 -8 19 -18 44 -23 55 -4 11 -17 43 -28 70 -12 28 -40 95 -62 150 -23
55 -45 109 -49 120 -5 11 -16 36 -24 55 -8 19 -47 114 -87 210 -39 96 -87 213
-107 260 -19 47 -38 94 -43 105 -4 11 -15 36 -23 55 -8 19 -52 125 -97 235
-45 110 -89 216 -97 235 -8 19 -19 44 -24 55 -4 11 -29 70 -54 131 l-46 111
-89 51 c-438 250 -972 456 -1403 543 -56 11 -109 22 -117 24 -8 1 -37 6 -65 9
-27 4 -57 9 -65 11 -8 2 -42 7 -75 10 -33 3 -78 8 -100 11 -108 13 -417 19
-575 9 -44 -3 -69 -1 -60 4 75 43 397 221 442 245 32 17 58 34 58 37 0 4 -20
12 -44 18 -25 6 -48 16 -52 22 -4 7 0 9 12 6 11 -3 73 -9 138 -12 66 -4 128
-9 139 -11 11 -2 45 -6 76 -9 31 -3 63 -7 71 -10 8 -2 35 -6 60 -9 52 -7 70
-10 205 -37 124 -25 121 -24 175 -38 333 -86 695 -219 1000 -367 36 -17 66
-30 68 -29 3 2 -43 120 -77 200 -34 79 -56 132 -196 473 -21 51 -45 97 -54
101 -52 28 -440 149 -529 166 -13 2 -31 6 -40 9 -9 3 -28 7 -42 10 -14 3 -70
14 -125 25 -120 23 -182 32 -395 55 -25 3 -47 5 -48 5 -4 1 44 59 102 124 33
38 89 107 97 120 8 12 140 -4 293 -34 55 -11 112 -23 126 -25 14 -3 33 -7 42
-10 9 -3 25 -6 35 -8 24 -5 193 -50 263 -71 30 -8 64 -20 74 -26 24 -14 36
-46 -142 375 -81 191 -151 350 -157 351 -5 2 -31 6 -57 10 -27 3 -48 10 -48
16 0 5 23 45 50 89 28 44 50 84 50 90 0 5 5 10 10 10 6 0 10 4 10 8 0 5 31 62
68 128 320 558 590 1294 701 1914 6 30 13 66 16 80 7 37 43 277 50 335 22 199
33 337 40 490 6 124 6 506 0 600 -7 120 -16 238 -20 280 -2 22 -7 68 -10 103
-4 35 -8 71 -9 80 -2 9 -7 44 -11 77 -4 32 -8 67 -10 76 -3 16 -8 48 -21 134
-14 101 -71 369 -105 499 -11 43 -22 86 -24 95 -8 39 -80 276 -117 386 -120
357 -311 783 -487 1088 -28 49 -51 90 -51 92 0 6 -144 232 -223 350 -69 103
-288 400 -306 415 -3 3 -24 28 -46 55 -97 122 -265 307 -415 455 -166 165
-249 242 -400 370 -36 30 -70 60 -76 65 -11 11 -202 156 -284 217 -25 19 -74
54 -110 78 -36 25 -66 48 -68 53 -2 4 -8 7 -13 7 -4 0 -48 26 -96 58 -242 161
-607 357 -893 482 -119 52 -131 57 -215 89 -44 18 -89 36 -100 41 -17 8 -155
55 -335 115 -147 49 -602 163 -715 179 -22 3 -51 8 -65 10 -97 19 -247 42
-334 52 -33 3 -67 8 -75 9 -9 2 -24 4 -33 4 -17 1 -18 22 -18 290 l0 290 72
137 72 138 0 193 1 193 -125 0 -125 0 0 -97 0 -98 -37 -3 -38 -3 0 100 0 101
-115 0 -115 0 0 -100 0 -100 -44 0 -44 0 2 88 c1 48 0 93 -2 100 -3 9 -36 12
-117 12 l-113 0 1 -97 1 -98 -38 -3 c-22 -2 -42 1 -45 7 -4 6 -6 51 -4 101 l2
90 -114 0 -115 0 0 -100 0 -100 -40 0 -40 0 0 100 0 100 -124 0 -124 0 0 -192z"/>
<path d="M5103 4013 c-40 -8 -73 -59 -73 -112 0 -60 26 -97 78 -111 85 -22
152 26 152 110 0 83 -67 131 -157 113z"/>
<path d="M5425 4006 c-41 -18 -64 -61 -60 -112 4 -52 21 -80 61 -99 43 -20 73
-19 111 5 80 48 78 166 -2 205 -40 18 -70 19 -110 1z"/>
<path d="M15379 4006 c-59 -33 -77 -112 -40 -172 20 -33 70 -56 106 -49 11 2
26 4 33 4 8 1 27 15 43 32 41 44 41 115 1 160 -33 37 -100 49 -143 25z"/>
<path d="M15724 4010 c-11 -4 -32 -22 -47 -39 -22 -26 -25 -39 -22 -79 3 -39
10 -52 39 -78 35 -30 44 -32 116 -26 46 4 91 89 76 145 -16 65 -97 104 -162
77z"/>
<path d="M12530 3714 c-52 -9 -147 -48 -197 -81 -117 -77 -194 -200 -229 -368
-7 -29 -6 -172 0 -230 11 -96 59 -207 122 -285 33 -40 133 -108 190 -130 78
-29 116 -35 219 -34 109 0 211 28 300 83 l60 36 3 258 2 257 -202 -2 -202 -3
0 -98 -1 -97 92 0 92 0 0 -95 c0 -64 -3 -97 -12 -102 -30 -19 -95 -28 -155
-21 -160 19 -248 127 -257 318 -12 244 113 399 310 384 64 -4 99 -17 144 -52
l35 -26 68 74 67 74 -22 24 c-67 73 -190 119 -315 120 -48 0 -98 -2 -112 -4z"/>
<path d="M19377 3698 c-7 -4 -10 -76 -10 -212 l0 -206 -189 0 -188 0 -1 23 c0
12 0 107 0 210 l0 188 -126 -3 -126 -3 0 -545 0 -545 124 0 124 0 2 205 c1
113 2 215 2 228 l1 22 189 0 188 0 -1 -207 c-1 -115 0 -218 3 -231 3 -22 5
-23 125 -20 l121 3 0 547 0 547 -113 3 c-63 2 -119 0 -125 -4z"/>
<path d="M3590 3150 l0 -550 121 0 121 0 -5 288 c-3 158 -7 301 -10 317 -3 17
-8 66 -12 110 l-6 80 48 -105 c26 -58 68 -145 93 -195 108 -209 215 -413 236
-450 l22 -40 126 -3 c97 -2 126 0 127 10 0 7 1 255 2 551 l2 537 -120 0 -120
0 1 -212 c1 -194 9 -391 19 -450 2 -13 6 -48 9 -78 l5 -55 -19 40 c-147 308
-180 373 -340 673 l-44 82 -128 0 -128 0 0 -550z"/>
<path d="M4876 3363 c0 -339 4 -409 29 -494 55 -194 204 -293 425 -285 138 5
219 35 290 107 56 57 96 138 116 239 4 19 9 200 11 403 l4 367 -120 0 -121 0
0 -333 c0 -457 -14 -519 -127 -557 -122 -42 -219 15 -249 145 -3 17 -7 190 -8
385 l-3 355 -124 3 -124 3 1 -338z"/>
<path d="M6170 3698 c-1 -5 -1 -1053 -1 -1075 1 -23 3 -23 125 -23 l124 0 0
183 c0 100 1 190 1 200 1 14 11 17 65 17 62 0 65 -1 84 -32 18 -30 128 -238
175 -330 l19 -38 140 0 140 0 -43 78 c-66 120 -89 162 -133 237 -55 93 -70
129 -57 133 23 8 91 63 114 94 61 80 83 228 50 337 -13 44 -50 100 -88 134
-32 29 -117 64 -180 76 -48 9 -534 17 -535 9z m477 -207 c45 -12 92 -59 94
-94 7 -99 -23 -156 -92 -182 -54 -19 -216 -28 -226 -12 -4 7 -7 193 -4 282 1
20 7 21 94 19 51 -1 112 -7 134 -13z"/>
<path d="M7375 3150 l-1 -550 118 0 c105 0 118 2 119 18 3 57 -1 520 -5 537
-4 22 -14 111 -21 190 l-4 50 19 -40 c95 -199 170 -350 225 -455 37 -69 87
-164 112 -212 l45 -88 127 0 127 0 0 550 1 550 -119 0 -118 0 1 -252 c1 -139
6 -287 10 -328 5 -41 11 -104 13 -140 l5 -65 -19 40 c-11 22 -49 101 -84 175
-36 74 -96 194 -135 265 -38 72 -89 168 -113 215 l-44 85 -130 3 -129 3 0
-551z"/>
<path d="M8665 3153 l0 -548 243 -1 c309 -2 395 15 495 97 111 91 129 301 35
399 -32 34 -124 80 -161 80 -17 1 -12 6 19 21 90 44 144 122 149 216 8 142
-75 236 -240 271 -27 6 -160 11 -295 12 l-246 1 1 -548z m477 339 c63 -25 80
-116 33 -177 -31 -42 -74 -55 -181 -55 l-81 0 2 123 c1 67 3 124 4 126 3 8
197 -7 223 -17z m16 -423 c25 -7 54 -25 71 -44 24 -28 28 -40 26 -85 -4 -103
-61 -140 -219 -144 -58 -2 -109 0 -114 3 -5 3 -9 68 -9 143 l0 137 31 3 c57 6
171 -1 214 -13z"/>
<path d="M9850 3150 l0 -550 355 0 355 1 0 104 0 105 -52 0 c-29 1 -132 2
-228 3 l-175 2 -2 123 c-1 67 1 122 5 123 4 1 88 2 187 3 l180 1 1 103 c1 68
-3 102 -10 103 -6 0 -90 1 -186 2 l-175 2 -3 108 c-2 97 -1 107 15 108 10 0
109 1 221 1 143 0 202 4 203 12 1 14 1 178 0 189 -1 4 -156 7 -346 7 l-345 0
0 -550z"/>
<path d="M10942 3150 l0 -550 124 0 124 0 1 118 c0 64 1 154 1 200 l-1 82 67
0 67 0 87 -162 c48 -90 96 -179 106 -198 l19 -35 137 -3 c75 -1 136 0 136 3 0
6 -48 98 -79 150 -10 17 -31 55 -48 85 -17 30 -48 87 -71 125 -39 68 -41 95
-8 95 19 0 103 88 122 128 43 91 50 198 18 298 -21 66 -67 121 -131 157 -89
48 -154 57 -425 57 l-247 0 1 -550z m504 330 c51 -25 63 -43 71 -104 3 -31 -1
-57 -15 -88 -29 -66 -80 -88 -208 -91 l-99 -2 -2 150 c-2 90 1 151 7 155 6 3
53 5 106 4 74 -2 106 -8 140 -24z"/>
<path d="M14120 3150 l0 -550 125 0 125 0 0 214 0 215 173 0 c94 0 180 0 190
0 15 1 17 13 17 106 l0 105 -190 0 -190 0 0 125 c0 112 2 125 18 126 9 0 109
1 222 2 l205 2 0 103 1 102 -348 0 -348 0 0 -550z"/>
<path d="M15168 3688 c-6 -20 -1 -669 6 -710 30 -184 89 -285 203 -345 67 -36
118 -47 223 -47 104 -1 155 9 226 44 118 58 184 170 209 357 5 34 9 484 6 666
l-1 47 -119 0 -120 0 0 -327 c0 -181 -3 -350 -6 -378 -10 -72 -41 -138 -78
-166 -28 -21 -43 -24 -114 -24 -76 0 -84 2 -112 29 -39 38 -61 85 -69 149 -3
29 -6 202 -6 385 l-1 332 -121 0 c-89 0 -123 -3 -126 -12z"/>
<path d="M16460 3150 l0 -550 125 0 125 0 0 200 0 201 67 -3 68 -3 43 -80 c24
-44 71 -133 105 -197 l62 -118 138 0 c75 0 137 2 137 5 0 4 -193 349 -232 416
-10 16 -10 23 -1 26 29 11 96 67 123 104 94 130 73 370 -40 458 -99 78 -163
91 -472 91 l-248 0 0 -550z m498 333 c118 -59 96 -239 -33 -274 -41 -12 -180
-19 -202 -11 -18 6 -18 299 -1 304 33 11 203 -3 236 -19z"/>
<path d="M17545 3598 l0 -103 120 -2 c66 -1 135 -2 153 -2 l32 -1 0 -445 0
-446 123 2 123 1 0 444 c-1 388 1 444 14 445 8 0 76 1 152 1 l136 1 0 104 1
103 -428 0 -427 0 1 -102z"/>
<path d="M20040 3150 l0 -549 355 -1 355 0 0 105 0 105 -230 0 -231 0 3 127 3
127 180 2 c99 1 183 2 186 3 3 0 5 46 5 101 0 93 -2 100 -21 101 -11 0 -95 1
-187 1 l-168 -1 0 110 0 109 28 1 c15 0 114 1 220 1 l192 0 0 104 0 104 -345
0 -345 0 0 -550z"/>
<path d="M21130 3150 l0 -550 125 0 125 0 0 200 0 200 68 0 67 0 41 -78 c113
-214 158 -298 167 -309 7 -9 48 -13 143 -13 74 0 134 3 134 6 0 4 -33 66 -74
138 -41 72 -86 154 -102 181 -15 28 -36 64 -46 80 -23 38 -23 42 3 50 32 11
108 84 129 125 65 127 52 302 -29 400 -16 20 -51 48 -78 63 -87 47 -152 56
-424 57 l-249 1 0 -551z m486 340 c64 -22 94 -69 89 -142 -3 -57 -28 -100 -69
-121 -44 -23 -72 -28 -169 -31 l-86 -2 0 153 c0 149 0 152 22 155 42 6 181 -2
213 -12z"/>
<path d="M13337 3106 c-2 -6 -3 -45 -3 -86 l1 -75 208 -3 207 -2 0 88 0 89
-205 -1 c-134 0 -206 -3 -208 -10z"/>
<path d="M3426 2003 c-209 -44 -381 -166 -460 -326 -43 -89 -58 -151 -57 -244
1 -152 49 -264 160 -373 82 -81 144 -116 356 -205 312 -130 365 -161 394 -226
38 -84 2 -171 -88 -216 -48 -24 -66 -27 -155 -27 -105 -1 -134 3 -205 28 -85
31 -190 89 -255 143 l-30 25 -31 -34 c-17 -18 -60 -69 -95 -113 -36 -44 -68
-83 -73 -86 -4 -3 -18 -20 -32 -39 l-24 -33 37 -30 c126 -102 264 -170 431
-214 178 -47 414 -38 577 20 244 88 405 297 408 532 1 127 -14 196 -62 291
-22 44 -99 127 -152 166 -29 21 -133 79 -150 83 -3 1 -16 6 -30 12 -14 6 -83
34 -155 63 -71 29 -154 63 -183 76 -29 13 -55 24 -58 24 -3 0 -28 15 -55 33
-59 38 -90 93 -84 151 4 40 42 98 76 117 138 73 372 36 536 -87 17 -13 38 -21
45 -18 7 3 59 64 115 136 l103 131 -23 22 c-101 98 -307 201 -447 221 -85 13
-268 12 -334 -3z"/>
<path d="M4727 1975 c-3 -9 -1 -339 2 -356 1 -4 118 -6 262 -5 165 0 263 -3
267 -9 3 -5 6 -361 7 -790 l0 -779 213 -1 c131 0 216 4 220 10 3 5 6 358 7
784 l0 775 25 5 c14 4 134 6 268 5 l242 0 0 183 c0 101 -3 183 -7 184 -5 1
-344 2 -755 2 -491 1 -749 -1 -751 -8z"/>
<path d="M7129 1982 c-15 -3 -20 -16 -83 -217 -19 -60 -64 -204 -101 -320 -36
-115 -71 -226 -76 -245 -6 -19 -13 -42 -16 -50 -4 -8 -12 -33 -18 -55 -7 -22
-24 -76 -38 -120 -14 -44 -50 -161 -82 -260 -145 -464 -204 -649 -212 -670 -2
-7 75 -9 219 -9 257 2 235 1 235 17 0 6 12 57 27 112 15 55 28 107 30 115 6
22 36 140 47 183 l10 37 299 0 298 0 8 -32 c4 -18 9 -37 10 -43 2 -5 24 -93
50 -195 26 -102 49 -187 51 -189 6 -8 455 -6 460 2 2 4 -6 38 -18 75 -13 37
-24 72 -25 77 -1 6 -29 98 -64 205 -34 107 -84 267 -112 355 -50 160 -195 619
-270 855 -21 69 -43 139 -48 155 -14 54 -64 210 -67 214 -4 5 -490 8 -514 3z
m296 -543 c26 -101 48 -191 50 -199 18 -80 70 -280 94 -357 5 -18 6 -34 3 -37
-9 -4 -395 -5 -403 0 -6 3 2 33 67 279 14 55 27 105 28 110 2 6 6 21 9 35 11
41 46 193 51 220 21 103 39 162 47 148 5 -8 29 -98 54 -199z"/>
<path d="M8789 1970 c-3 -43 -4 -1907 -1 -1920 3 -13 46 -15 335 -14 378 2
439 6 572 41 77 20 229 91 280 131 147 116 244 261 295 445 50 177 61 436 26
618 -78 409 -320 635 -751 700 -49 7 -212 12 -418 13 -293 1 -337 -1 -338 -14z
m708 -361 c186 -45 305 -174 349 -379 32 -150 15 -464 -28 -517 -6 -7 -7 -13
-2 -13 4 0 3 -5 -4 -12 -7 -7 -12 -18 -12 -26 0 -19 -52 -92 -99 -140 -81 -82
-226 -130 -386 -128 l-80 1 -3 618 -2 617 110 -5 c60 -2 131 -10 157 -16z"/>
<path d="M10799 1985 c-1 0 -2 -84 -3 -186 l-1 -186 270 0 269 1 0 -785 c0
-431 3 -786 7 -789 6 -4 410 -5 429 -1 3 1 5 355 4 788 l0 788 265 0 266 0 0
184 0 185 -753 0 c-413 1 -753 1 -753 1z"/>
<path d="M12942 1010 l3 -974 213 -1 c120 0 216 4 220 9 3 5 5 122 5 260 0
238 1 253 20 281 12 17 24 32 27 35 3 3 25 32 50 65 24 33 49 65 55 72 5 6 23
30 39 52 17 23 32 41 36 41 3 0 21 -28 40 -62 59 -105 178 -313 200 -348 5 -8
55 -96 111 -195 57 -99 108 -187 115 -195 18 -22 481 -21 476 1 -2 8 -47 87
-100 176 -53 90 -101 171 -107 180 -5 10 -39 67 -75 126 -36 60 -73 123 -84
140 -42 73 -242 407 -278 464 -21 34 -38 65 -38 68 0 4 84 117 188 253 312
411 392 518 392 523 0 2 -107 4 -237 4 l-237 -1 -23 -29 c-26 -34 -200 -271
-223 -305 -8 -12 -24 -34 -35 -48 -27 -36 -184 -251 -247 -339 -28 -40 -54
-70 -58 -68 -4 2 -7 177 -8 387 0 211 -1 388 -1 393 -1 6 -82 10 -221 10
l-220 0 2 -975z"/>
<path d="M15440 1980 c-4 -3 -11 -16 -14 -30 -4 -14 -27 -86 -51 -160 -52
-164 -102 -323 -285 -905 -77 -247 -166 -529 -196 -625 -30 -96 -59 -185 -64
-197 -5 -13 -6 -23 -2 -24 4 -1 105 -2 225 -3 l217 -1 14 50 c18 64 106 403
106 410 0 3 135 5 299 5 l299 0 20 -77 c12 -43 31 -114 42 -158 12 -44 23 -87
25 -95 3 -16 23 -93 30 -120 4 -13 39 -15 235 -15 168 0 230 3 230 12 0 6 -13
51 -28 100 -16 48 -43 135 -61 193 -45 141 -89 282 -152 480 -29 91 -54 170
-55 176 -1 6 -29 96 -62 200 -34 104 -102 322 -153 484 -50 162 -94 297 -96
299 -5 7 -513 7 -523 1z m350 -710 c50 -201 95 -379 100 -396 l7 -31 -207 0
-207 0 24 91 c13 50 26 98 28 106 9 35 86 336 88 350 20 99 62 259 67 253 4
-5 49 -172 100 -373z"/>
<path d="M17119 1979 c-8 -4 -12 -788 -9 -1774 l0 -170 211 0 211 0 -5 475
c-3 261 -8 491 -10 510 -3 19 -8 67 -12 107 -3 40 -8 85 -10 100 -2 15 -6 60
-10 98 -3 39 -9 78 -11 88 -3 9 -2 17 3 17 5 0 40 -71 78 -157 65 -146 224
-470 307 -623 48 -88 129 -243 228 -435 46 -88 87 -164 92 -170 12 -13 447
-13 450 0 4 30 3 1935 -1 1936 -39 7 -404 2 -409 -6 -14 -22 -4 -823 12 -1005
4 -39 17 -161 21 -200 12 -98 16 -184 8 -175 -6 6 -47 93 -92 195 -86 192
-224 465 -386 765 -18 33 -74 141 -125 240 -51 99 -95 182 -97 184 -5 7 -433
7 -444 0z"/>
<path d="M19781 1960 c-5 -14 -31 -92 -57 -175 -25 -82 -60 -193 -76 -245 -17
-52 -47 -149 -68 -215 -22 -66 -49 -151 -61 -190 -12 -38 -36 -117 -55 -175
-150 -474 -284 -906 -284 -915 0 -7 74 -10 222 -10 l221 1 27 104 c15 58 42
162 60 233 l33 127 298 0 298 0 14 -52 c9 -29 34 -126 56 -216 23 -89 45 -170
49 -180 6 -15 28 -17 238 -17 150 0 230 4 228 10 -11 33 -233 741 -314 1000
-29 91 -65 205 -121 383 -40 126 -64 204 -84 272 -9 30 -20 64 -25 75 -7 17
-35 112 -56 188 -6 21 21 19 -281 21 l-253 1 -9 -25z m319 -530 c28 -113 52
-214 55 -225 2 -11 9 -38 15 -60 6 -22 12 -48 15 -57 4 -19 53 -203 61 -229 4
-14 -18 -16 -205 -16 l-209 0 9 31 c13 45 127 486 133 516 3 14 15 66 27 115
27 117 27 118 28 135 2 41 25 -25 71 -210z"/>
<path d="M21458 1725 c-2 -143 -1 -582 2 -975 l5 -715 603 0 602 0 0 186 0
186 -367 -1 c-203 -1 -376 0 -385 2 -16 4 -17 56 -17 781 0 427 0 781 0 786
-1 6 -81 10 -221 10 l-219 0 -3 -260z"/>
</g>
</svg>
